<svg xmlns="http://www.w3.org/2000/svg" viewBox="0 0 100 100" width="100" height="100">
    <!-- Soft blue shadow layer -->
    <path d="M54,14 C48,8 38,8 32,14 C26,20 28,32 28,46 C28,58 32,58 32,68 C32,78 26,88 34,92 C42,96 46,84 50,78 C54,84 58,96 66,92 C74,88 68,78 68,68 C68,58 72,58 72,46 C72,32 74,20 68,14 C62,8 56,12 54,14 Z" fill="#D6E8FF" transform="translate(4, 4)"/>
    <!-- Tooth primary body -->
    <path d="M54,14 C48,8 38,8 32,14 C26,20 28,32 28,46 C28,58 32,58 32,68 C32,78 26,88 34,92 C42,96 46,84 50,78 C54,84 58,96 66,92 C74,88 68,78 68,68 C68,58 72,58 72,46 C72,32 74,20 68,14 C62,8 56,12 54,14 Z" fill="#FFFFFF" stroke="#000000" stroke-width="5" stroke-linejoin="round"/>
    <!-- Highlighting detail -->
    <path d="M38,20 C34,24 35,32 35,40" fill="none" stroke="#000000" stroke-width="4" stroke-linecap="round"/>
    <!-- Cute friendly face detailing (Neo-Brutalism mascot vibe) -->
    <circle cx="43" cy="42" r="3.5" fill="#000000"/>
    <circle cx="57" cy="42" r="3.5" fill="#000000"/>
    <path d="M47,50 Q50,53 53,50" fill="none" stroke="#000000" stroke-width="3" stroke-linecap="round"/>
    <!-- Cheerful sparkle -->
    <path d="M72,15 L74,21 L80,23 L74,25 L72,31 L70,25 L64,23 L70,21 Z" fill="#F8D7E6" stroke="#000000" stroke-width="2" stroke-linejoin="round"/>
</svg>
